<?xml version="1.0" encoding="UTF-8" standalone="no"?>
<svg width="407px" height="251px" viewBox="0 0 407 251" version="1.1" xmlns="http://www.w3.org/2000/svg" xmlns:xlink="http://www.w3.org/1999/xlink">
    <!-- Generator: Sketch 44.1 (41455) - http://www.bohemiancoding.com/sketch -->
    <title>Logo, Green</title>
    <desc>Created with Sketch.</desc>
    <defs>
        <polygon id="path-1" points="0 0.423353191 0 88.3088 78.041536 88.3088 78.041536 0.423353191 9.67697992e-20 0.423353191"></polygon>
        <polygon id="path-3" points="0 0.200306383 0 88.0857532 78.041536 88.0857532 78.041536 0.200306383 9.67697992e-20 0.200306383"></polygon>
        <polygon id="path-5" points="0 250.600596 406.082465 250.600596 406.082465 0 0 0"></polygon>
    </defs>
    <g id="Symbols" stroke="none" stroke-width="1" fill="none" fill-rule="evenodd">
        <g id="Logo,-Green">
            <g id="Page-1">
                <g id="Group-3" transform="translate(0.000000, 1.387830)">
                    <mask id="mask-2" fill="white">
                        <use xlink:href="#path-1"></use>
                    </mask>
                    <g id="Clip-2"></g>
                    <path d="M30.30115,39.5512681 L36.6810535,39.5512681 C42.4486719,39.5512681 50.9831763,38.3466723 50.9831763,29.3157787 C50.9831763,20.2973957 42.4486719,19.0856511 36.6810535,19.0856511 L30.30115,19.0856511 L30.30115,39.5512681 Z M3.24279035,12.3477787 C3.24279035,9.9368 3.00180351,4.3928 -0.000714035088,0.423353191 L41.004536,0.423353191 C56.4009175,0.423353191 78.041536,4.88250213 78.041536,29.3157787 C78.041536,53.7579915 56.4009175,58.2189277 41.004536,58.2189277 L30.30115,58.2189277 L30.30115,76.3915234 C30.30115,78.8007149 30.5385667,84.3411404 33.5464395,88.3088 L-0.000714035088,88.3088 C3.00180351,84.3411404 3.24279035,78.8007149 3.24279035,76.3915234 L3.24279035,12.3477787 Z" id="Fill-1" fill="#6D8D23" mask="url(#mask-2)"></path>
                </g>
                <path d="M132.037226,72.8440851 C143.581389,72.8440851 152.840639,62.6050213 152.840639,45.756766 C152.840639,28.9102979 143.581389,18.671234 132.037226,18.671234 C120.489494,18.671234 111.233814,28.9102979 111.233814,45.756766 C111.233814,62.6050213 120.489494,72.8440851 132.037226,72.8440851 M84.1754544,45.756766 C84.1754544,20.2297021 105.100253,0 132.037226,0 C158.9742,0 179.902568,20.2297021 179.902568,45.756766 C179.902568,71.2802553 158.9742,91.5045957 132.037226,91.5045957 C105.100253,91.5045957 84.1754544,71.2802553 84.1754544,45.756766" id="Fill-4" fill="#6D8D23"></path>
                <path d="M190.599885,13.7361447 C190.599885,11.3233787 190.358898,5.78116596 187.347455,1.81171915 L220.894609,1.81171915 C217.895661,5.78116596 217.661815,11.3233787 217.661815,13.7361447 L217.661815,77.7798894 C217.661815,80.1890809 217.895661,85.7277191 220.894609,89.697166 L187.347455,89.697166 C190.358898,85.7277191 190.599885,80.1890809 190.599885,77.7798894 L190.599885,13.7361447 Z" id="Fill-6" fill="#6D8D23"></path>
                <path d="M230.879497,89.697166 C234.014111,85.7277191 234.247957,80.1890809 234.247957,77.7798894 L234.247957,13.7361447 C234.247957,11.3233787 234.014111,5.78116596 230.879497,1.81171915 L261.909677,1.81171915 L297.625712,51.7738468 L297.868484,51.7738468 L297.868484,13.7361447 C297.868484,11.3233787 297.625712,5.78116596 294.626764,1.81171915 L319.871475,1.81171915 C316.747571,5.78116596 316.51194,11.3233787 316.51194,13.7361447 L316.51194,89.697166 L294.626764,89.697166 L253.130615,33.242017 L252.893199,33.242017 L252.893199,77.7798894 C252.893199,80.1890809 253.130615,85.7277191 256.134918,89.697166 L230.879497,89.697166 Z" id="Fill-8" fill="#6D8D23"></path>
                <path d="M351.746001,20.4731234 L338.870164,20.4731234 C336.460295,20.4731234 330.928308,20.5946553 326.960058,23.600783 L326.960058,1.81261277 L403.572453,1.81261277 L403.572453,23.600783 C399.604203,20.5946553 394.065076,20.4731234 391.662348,20.4731234 L378.797221,20.4731234 L378.797221,77.7789957 C378.797221,80.1881872 379.031067,85.7286128 382.047865,89.6962723 L348.500712,89.6962723 C351.494304,85.7286128 351.746001,80.1881872 351.746001,77.7789957 L351.746001,20.4731234 Z" id="Fill-10" fill="#6D8D23"></path>
                <g id="Group-14" transform="translate(0.000000, 103.260170)">
                    <mask id="mask-4" fill="white">
                        <use xlink:href="#path-3"></use>
                    </mask>
                    <g id="Clip-13"></g>
                    <path d="M30.30115,39.3139234 L36.6810535,39.3139234 C42.4486719,39.3139234 50.9831763,38.1236255 50.9831763,29.0820085 C50.9831763,20.0600511 42.4486719,18.8626043 36.6810535,18.8626043 L30.30115,18.8626043 L30.30115,39.3139234 Z M3.24279035,12.1247319 C3.24279035,9.70660426 3.00180351,4.16617872 -0.000714035088,0.200306383 L41.004536,0.200306383 C56.4009175,0.200306383 78.041536,4.65766809 78.041536,29.0820085 C78.041536,53.5242213 56.4009175,57.981583 41.004536,57.981583 L30.30115,57.981583 L30.30115,76.1613277 C30.30115,78.5812426 30.5385667,84.1091574 33.5464395,88.0857532 L-0.000714035088,88.0857532 C3.00180351,84.1091574 3.24279035,78.5812426 3.24279035,76.1613277 L3.24279035,12.1247319 Z" id="Fill-12" fill="#6D8D23" mask="url(#mask-4)"></path>
                </g>
                <path d="M98.1310917,154.267966 L116.769193,154.267966 L107.631329,128.982179 L98.1310917,154.267966 Z M95.0000478,113.692391 C95.4784513,112.003455 96.4370434,110.319881 96.4370434,108.634519 C96.4370434,106.954519 95.1214338,105.276306 94.2788724,103.460477 L123.857776,103.460477 L154.887956,183.516051 C156.208921,187.010094 158.367092,189.049328 159.936184,191.345923 L125.305482,191.345923 C126.264074,190.019796 127.467223,188.33086 127.467223,186.400647 C127.467223,185.196051 127.106636,184.005753 126.744263,182.91554 L122.051267,170.517498 L92.7169206,170.517498 L88.3827276,182.91554 C88.1417408,184.005753 87.902539,185.196051 87.902539,186.400647 C87.902539,188.093157 88.8611311,190.019796 89.9482496,191.345923 L62.4043461,191.345923 C64.6892583,188.700817 66.4975522,186.772391 67.7042715,182.91554 L95.0000478,113.692391 Z" id="Fill-15" fill="#6D8D23"></path>
                <path d="M196.129551,141.383796 L202.505885,141.383796 C213.571643,141.383796 218.980459,140.1792 218.980459,132.342179 C218.980459,122.716136 213.084314,122.122774 202.505885,122.122774 L196.129551,122.122774 L196.129551,141.383796 Z M169.074762,115.384902 C169.074762,112.966774 168.833775,107.426349 165.824117,103.460477 L206.829367,103.460477 C223.421757,103.460477 246.038819,103.94303 246.038819,131.389583 C246.038819,144.86354 235.331863,151.49954 231.249367,152.934689 L246.038819,184.112987 C247.356214,187.010094 248.80392,189.178009 250.976371,191.345923 L219.583819,191.345923 L206.718692,160.040732 L196.129551,160.040732 L196.129551,179.421498 C196.129551,181.841413 196.370538,187.369328 199.374841,191.345923 L165.824117,191.345923 C168.833775,187.369328 169.074762,181.841413 169.074762,179.421498 L169.074762,115.384902 Z" id="Fill-17" fill="#6D8D23"></path>
                <path d="M261.309709,115.385081 C261.309709,112.965166 261.065152,107.426528 258.067989,103.460655 L291.611573,103.460655 C288.609055,107.426528 288.371639,112.965166 288.371639,115.385081 L288.371639,138.011464 L288.609055,138.011464 L310.135428,111.286953 C311.09402,110.205677 312.177568,108.396996 312.177568,106.716996 C312.177568,105.276485 311.222546,104.302443 310.733432,103.460655 L344.644744,103.460655 C341.993889,105.276485 339.835718,106.833166 335.50331,111.762357 L318.546761,131.275379 L342.725775,184.358017 C343.928924,187.010272 345.362349,189.178187 347.41163,191.346102 L316.511761,191.346102 L299.79977,150.173591 L288.371639,163.531379 L288.371639,179.421677 C288.371639,181.841591 288.609055,187.369506 291.611573,191.346102 L258.067989,191.346102 C261.065152,187.369506 261.309709,181.841591 261.309709,179.421677 L261.309709,115.385081 Z" id="Fill-19" fill="#6D8D23"></path>
                <path d="M28.5928211,219.27503 L28.5928211,238.536051 C28.5571193,241.988987 28.5571193,244.834264 25.3118298,247.6152 C22.1986368,250.346094 18.1821895,250.599881 16.1150579,250.599881 C14.2567816,250.599881 12.4395623,250.3872 10.7133825,249.768817 C7.07715877,248.515966 5.13498333,245.874434 4.4423693,243.581413 C4.05857544,242.249923 4.05857544,241.304477 4.01037807,237.485157 L4.01037807,219.27503 L9.71730351,219.27503 L9.71730351,238.048136 C9.71730351,239.349243 9.6744614,240.607455 10.1082377,241.769157 C11.2792553,244.705583 14.4727772,245.054094 16.2846412,245.054094 C17.1878956,245.054094 19.4799482,245.0112 21.1668561,243.545668 C22.853764,242.037243 22.853764,240.312562 22.853764,237.744306 L22.853764,219.27503 L28.5928211,219.27503 Z" id="Fill-21" fill="#6D8D23"></path>
                <polygon id="Fill-23" fill="#6D8D23" points="68.3597557 219.27503 73.9738566 219.27503 73.9738566 249.833157 69.0006022 249.833157 55.6517162 228.409583 56.0033785 249.833157 50.4249794 249.833157 50.4249794 219.27503 55.5678171 219.27503 69.0470145 240.87554"></polygon>
                <mask id="mask-6" fill="white">
                    <use xlink:href="#path-5"></use>
                </mask>
                <g id="Clip-26"></g>
                <polygon id="Fill-25" fill="#6D8D23" mask="url(#mask-6)" points="95.7949474 249.832085 101.421544 249.832085 101.421544 219.273957 95.7949474 219.273957"></polygon>
                <polygon id="Fill-27" fill="#6D8D23" mask="url(#mask-6)" points="148.601591 219.27503 139.933205 249.833157 132.235907 249.833157 123.25156 219.27503 129.25124 219.27503 136.077415 243.381243 142.691165 219.27503"></polygon>
                <polygon id="Fill-28" fill="#6D8D23" mask="url(#mask-6)" points="176.050885 224.381872 176.050885 231.566553 190.740371 231.566553 190.740371 236.493957 176.050885 236.493957 176.050885 244.670553 193.203793 244.670553 193.203793 249.832085 170.436784 249.832085 170.436784 219.275745 192.138095 219.275745 192.138095 224.381872"></polygon>
                <path d="M220.698963,224.207438 L220.698963,233.778077 L222.689336,233.778077 C224.631511,233.778077 225.363397,233.715523 226.44159,233.688715 C227.700077,233.638672 231.807564,233.422417 231.807564,228.96863 C231.807564,228.316289 231.757582,226.075098 229.386985,224.870502 C228.173125,224.248545 226.702213,224.207438 223.335538,224.207438 L220.698963,224.207438 Z M215.036665,219.274672 L224.763608,219.274672 C228.830038,219.324715 231.541586,219.324715 234.219218,221.489055 C236.123906,223.045736 237.587678,225.456715 237.587678,229.007949 C237.587678,234.853991 233.319533,236.875353 231.584428,237.388289 L238.374902,249.8328 L231.841481,249.8328 L225.802529,238.487438 L220.698963,238.487438 L220.698963,249.8328 L215.036665,249.8328 L215.036665,219.274672 Z" id="Fill-29" fill="#6D8D23" mask="url(#mask-6)"></path>
                <path d="M264.998414,240.728809 C265.7303,241.852979 268.024138,245.372043 274.461164,245.372043 C275.541142,245.372043 276.663962,245.280894 277.738585,244.834085 C279.944954,243.936894 280.328747,242.380213 280.328747,241.347191 C280.328747,239.399106 278.993502,238.707447 278.04205,238.303532 C277.351221,238.047957 277.270892,238.015787 274.502221,237.363447 L270.828511,236.582426 C268.882765,236.110596 267.936668,235.897915 266.985217,235.495787 C265.594633,234.931021 261.837024,233.081234 261.837024,228.012638 C261.837024,222.214851 266.728164,218.50634 273.891721,218.50634 C280.464414,218.50634 284.006028,221.75017 286.160629,224.688383 L281.506905,228.193149 C280.464414,226.679362 278.474041,223.648213 273.591826,223.648213 C270.525046,223.648213 267.850984,225.031532 267.850984,227.362085 C267.850984,229.973234 270.694629,230.484383 273.4633,231.000894 L276.619335,231.69434 C280.716111,232.557574 286.510506,234.246511 286.510506,240.777064 C286.510506,247.783021 280.032423,250.599702 273.540059,250.599702 C271.867432,250.599702 269.962743,250.419191 268.108037,249.899106 C266.073037,249.287872 262.488581,247.82234 260.200098,244.115617 L264.998414,240.728809 Z" id="Fill-30" fill="#6D8D23" mask="url(#mask-6)"></path>
                <polygon id="Fill-31" fill="#6D8D23" mask="url(#mask-6)" points="308.341772 249.832085 313.955873 249.832085 313.955873 219.273957 308.341772 219.273957"></polygon>
                <polygon id="Fill-32" fill="#6D8D23" mask="url(#mask-6)" points="358.157679 224.469268 349.73385 224.469268 349.73385 249.831906 344.026925 249.831906 344.026925 224.469268 335.778035 224.469268 335.778035 219.275566 358.157679 219.275566"></polygon>
                <polygon id="Fill-33" fill="#6D8D23" mask="url(#mask-6)" points="395.790899 237.744306 395.790899 249.833157 390.176798 249.833157 390.176798 237.744306 379.983947 219.27503 386.426329 219.27503 393.032938 231.946519 399.734157 219.27503 406.083714 219.27503"></polygon>
            </g>
        </g>
    </g>
</svg>